/* XPM */
static char * logo_xpm[] = {
"20 20 219 2",
"  	c None",
". 	c #FFFFFF",
"+ 	c #FAFBF9",
"@ 	c #BFCAB5",
"# 	c #90A381",
"$ 	c #91A482",
"% 	c #90A380",
"& 	c #BECAB5",
"* 	c #C6D0BE",
"= 	c #8DA17D",
"- 	c #CBD4C3",
"; 	c #FCFDFC",
"> 	c #DCEBDB",
", 	c #CBD4C4",
"' 	c #9CAE8F",
") 	c #E1E6DD",
"! 	c #FEFEFE",
"~ 	c #C4CFBC",
"{ 	c #CFD9C9",
"] 	c #A4CCA4",
"^ 	c #B2D4B1",
"/ 	c #F4F9F4",
"( 	c #EEF5ED",
"_ 	c #3B570C",
": 	c #F5E5E5",
"< 	c #E2E7DE",
"[ 	c #D3DBCD",
"} 	c #FDFDFD",
"| 	c #BFCBB7",
"1 	c #E3E8DF",
"2 	c #AAB796",
"3 	c #2F6913",
"4 	c #117C11",
"5 	c #73B173",
"6 	c #79B578",
"7 	c #2B5700",
"8 	c #D9D2C6",
"9 	c #E8F2E8",
"0 	c #BCD9BB",
"a 	c #7BAF75",
"b 	c #E2CEC8",
"c 	c #D9E0D4",
"d 	c #9BAD8D",
"e 	c #C2CDBA",
"f 	c #CDD5C6",
"g 	c #509C4E",
"h 	c #017801",
"i 	c #007700",
"j 	c #007100",
"k 	c #007400",
"l 	c #017500",
"m 	c #176200",
"n 	c #814C2B",
"o 	c #F0D8D8",
"p 	c #B8C4AE",
"q 	c #C2CCB9",
"r 	c #899E79",
"s 	c #FBFDFB",
"t 	c #828352",
"u 	c #B13E36",
"v 	c #5C5619",
"w 	c #007B00",
"x 	c #0D6B00",
"y 	c #077100",
"z 	c #017200",
"A 	c #0B6B00",
"B 	c #8A5634",
"C 	c #9A815C",
"D 	c #E4DFD6",
"E 	c #FFFFFE",
"F 	c #8A9E79",
"G 	c #CAD4C3",
"H 	c #ADC09C",
"I 	c #BD3731",
"J 	c #B26148",
"K 	c #028001",
"L 	c #344D00",
"M 	c #5C440B",
"N 	c #166500",
"O 	c #A64434",
"P 	c #257310",
"Q 	c #664211",
"R 	c #525C19",
"S 	c #644D18",
"T 	c #7D6036",
"U 	c #FDF9F9",
"V 	c #916944",
"W 	c #D84545",
"X 	c #5D722B",
"Y 	c #324F00",
"Z 	c #B83733",
"` 	c #99653F",
" .	c #464100",
"..	c #DA6160",
"+.	c #DB6C66",
"@.	c #8A5A36",
"#.	c #DB605F",
"$.	c #E16C6B",
"%.	c #A27C59",
"&.	c #D4A9A3",
"*.	c #91A582",
"=.	c #F6FAF6",
"-.	c #8F3C1D",
";.	c #E24D4C",
">.	c #A36144",
",.	c #B92B29",
"'.	c #E45B5B",
").	c #D75A53",
"!.	c #A13726",
"~.	c #E97A7A",
"{.	c #E87272",
"].	c #E66665",
"^.	c #E76F6E",
"/.	c #E76E6D",
"(.	c #DB877E",
"_.	c #A28369",
":.	c #EFF6EE",
"<.	c #95371C",
"[.	c #E56261",
"}.	c #E35352",
"|.	c #E45D5C",
"1.	c #F8D6D6",
"2.	c #F1A9A9",
"3.	c #E76C6C",
"4.	c #E45D5D",
"5.	c #E66464",
"6.	c #E55E5E",
"7.	c #EA8080",
"8.	c #E97C7B",
"9.	c #9C8365",
"0.	c #FDFEFD",
"a.	c #864421",
"b.	c #E35655",
"c.	c #E24D4D",
"d.	c #E25150",
"e.	c #FEF7F7",
"f.	c #F7D2D2",
"g.	c #E66968",
"h.	c #E56362",
"i.	c #E35454",
"j.	c #E45C5C",
"k.	c #E45A5A",
"l.	c #E76A6A",
"m.	c #CA6558",
"n.	c #B79785",
"o.	c #876A44",
"p.	c #D82322",
"q.	c #E14B4A",
"r.	c #E66564",
"s.	c #EB8786",
"t.	c #E24E4D",
"u.	c #E66767",
"v.	c #E76D6D",
"w.	c #E56262",
"x.	c #A68B68",
"y.	c #DBA6A5",
"z.	c #ACC3A0",
"A.	c #BE1E18",
"B.	c #D70B0A",
"C.	c #D91615",
"D.	c #E04140",
"E.	c #DF3B3A",
"F.	c #E14746",
"G.	c #E55F5E",
"H.	c #E45A59",
"I.	c #957852",
"J.	c #E9C6C5",
"K.	c #FAFCFA",
"L.	c #845C36",
"M.	c #DB2524",
"N.	c #D60504",
"O.	c #D91918",
"P.	c #D70C0B",
"Q.	c #D91817",
"R.	c #DA201F",
"S.	c #D8100F",
"T.	c #DD302F",
"U.	c #CC140D",
"V.	c #917150",
"W.	c #FEFCFC",
"X.	c #FEFFFE",
"Y.	c #B7CBAD",
"Z.	c #B42B1E",
"`.	c #DC2A29",
" +	c #DE3534",
".+	c #D60706",
"++	c #DA1F1E",
"@+	c #DD2D2C",
"#+	c #DA2120",
"$+	c #964822",
"%+	c #D19894",
"&+	c #B7C4AD",
"*+	c #89885C",
"=+	c #CF1511",
"-+	c #DB2423",
";+	c #D70D0C",
">+	c #D52521",
",+	c #836B3F",
"'+	c #ECCECE",
")+	c #9CAD8E",
"!+	c #CFD7C8",
"~+	c #868354",
"{+	c #CB0A04",
"]+	c #DC2928",
"^+	c #D60605",
"/+	c #D9201E",
"(+	c #C4150A",
"_+	c #984622",
":+	c #7D6336",
"<+	c #C68B84",
"[+	c #9CA17A",
"}+	c #813811",
"|+	c #794118",
"1+	c #7D663C",
"2+	c #947455",
"3+	c #C98C86",
"4+	c #EFD4D4",
"5+	c #FDFBFB",
"6+	c #91A481",
". . . . . + @ # # $ $ % $ & + . . . . . ",
". . . . * = - ; . . > . ; , ' ) . . . . ",
". . ! ~ { ] ^ / . ( _ : . . . < [ } . . ",
". . | 1 . 2 3 4 5 6 7 8 9 0 a b c d . . ",
". e f ! g h i j j k j j l m n o . p q . ",
"+ r . s t u v w x k y z A B C D . E F + ",
"& G . H I J K L M N O P Q R S T U . , & ",
"$ ; . V W X Y Z `  ...+.@.#.$.%.&.. ; *.",
"% . =.-.;.>.,.'.).!.~.{.].^./.(._.. . $ ",
"$ . :.<.[.}.|.1.2.3.4.5.6.^.7.8.9.. . $ ",
"$ . 0.a.b.c.d.e.f.g.h.i.j.k.l.m.n.. . $ ",
"% . . o.p.q.].r.s.t.q.t.u.v.w.x.y.. . % ",
"$ ; . z.A.B.C.D.E.F.G.H.;.;.3.I.J.. ; $ ",
"& G . K.L.M.N.O.P.Q.R.B.S.T.U.V.W.. G & ",
"+ r X.. Y.Z.`.P. +.+O.++@+#+$+%+. X.r + ",
". e &+. . *+=+-+N.N.;+.+;+>+,+'+. &+e . ",
". . )+!+. =.~+{+]+^+/+(+_+:+<+. !+)+. . ",
". . 0.)+&+X.K.[+}+|+1+2+3+4+X.&+)+0.. . ",
". . . . e r - ; 5+W.. . ; - r e . . . . ",
". . . . . + @ % % 6+6+% % @ + . . . . . "};
